<svg xmlns="http://www.w3.org/2000/svg" viewBox="0 0 64 64" id="Customizable-orders">
  <path d="M36.199 13.784c-.332-.403-.929-.463-1.333-.13-.404.332-.462.929-.131 1.333l1.227 1.493c.167.203.411.328.672.344.02.001.04.002.06.002.241 0 .474-.092.65-.259l3.59-3.397c.381-.359.397-.959.038-1.339-.361-.381-.959-.396-1.339-.037l-2.853 2.699-.582-.709zM23.784 14.671H9.399c-1.838 0-3.333 1.495-3.333 3.333v10.02c0 1.838 1.495 3.333 3.333 3.333h14.385c1.839 0 3.334-1.495 3.334-3.333v-10.02c0-1.838-1.495-3.333-3.334-3.333zm-8.211 1.894h2.075v2.217h-2.075v-2.217zm-7.614 11.459v-10.02c0-.794.646-1.44 1.439-1.44h.852v12.899h-.852c-.793 0-1.439-.646-1.439-1.44zm4.185-11.459h1.535v2.424c0 .93.739 1.686 1.648 1.686h2.557c.914 0 1.657-.756 1.657-1.686v-2.424h1.696v12.899H12.145v-12.899zm13.08 11.459c0 .794-.646 1.44-1.44 1.44h-.653v-12.899h.653c.794 0 1.44.646 1.44 1.44v10.02zM44.814 16.153h1.421c.523 0 .947-.424.947-.947s-.424-.947-.947-.947h-1.421c-.523 0-.947.424-.947.947s.424.947.947.947zM48.77 16.153h2.535c.523 0 .947-.424.947-.947s-.424-.947-.947-.947h-2.535c-.523 0-.947.424-.947.947s.424.947.947.947zM53.839 16.153h1.42c.523 0 .947-.424.947-.947s-.424-.947-.947-.947h-1.42c-.523 0-.947.424-.947.947s.424.947.947.947zM44.814 32.033h1.421c.523 0 .947-.424.947-.947s-.424-.947-.947-.947h-1.421c-.523 0-.947.424-.947.947s.424.947.947.947zM48.77 32.033h2.535c.523 0 .947-.424.947-.947s-.424-.947-.947-.947h-2.535c-.523 0-.947.424-.947.947s.424.947.947.947zM53.839 32.033h1.42c.523 0 .947-.424.947-.947s-.424-.947-.947-.947h-1.42c-.523 0-.947.424-.947.947s.424.947.947.947z" fill="#58ab05" class="color000000 svgShape"></path>
  <path d="M31.252 18.491c.057.242.207.452.419.584l2.844 1.785c.152.095.328.144.504.144.078 0 .155-.009.231-.028l3.235-.815c.246-.062.456-.22.585-.438l1.729-2.938c.265-.451.115-1.032-.336-1.297-.451-.267-1.032-.114-1.296.336l-1.528 2.597-2.459.62-2.174-1.364-.614-2.591 1.335-2.269 2.851-.718c.508-.128.815-.642.687-1.15-.127-.507-.642-.813-1.149-.687l-3.235.815c-.246.062-.456.22-.585.438l-1.729 2.938c-.124.211-.162.461-.105.699l.791 3.34zM39.483 26.584l-2.853 2.699-.582-.709c-.332-.403-.929-.462-1.333-.131-.404.332-.462.929-.131 1.333l1.227 1.494c.167.203.411.328.672.344.02.001.04.002.06.002.241 0 .474-.092.65-.259l3.59-3.397c.381-.359.397-.959.038-1.339-.361-.381-.96-.396-1.339-.037z" fill="#58ab05" class="color000000 svgShape"></path>
  <path d="M34.868,35.795c.078,0,.155-.009,.231-.028l3.234-.815c.246-.062,.456-.22,.585-.438l1.729-2.939c.265-.451,.115-1.031-.336-1.296-.451-.267-1.031-.115-1.296,.336l-1.528,2.597-2.458,.62-2.175-1.364-.613-2.592,1.335-2.269,2.85-.718c.508-.128,.815-.643,.687-1.15-.127-.507-.642-.812-1.149-.687l-3.234,.815c-.246,.062-.456,.22-.585,.438l-1.729,2.938c-.124,.211-.162,.461-.105,.698l.79,3.34c.057,.242,.207,.453,.419,.584l2.846,1.785c.151,.096,.327,.145,.503,.145Z" fill="#58ab05" class="color000000 svgShape"></path>
  <path d="M61.889,43.88c-.084-.499-.369-.948-.78-1.232-.403-.278-.887-.38-1.357-.29l-.864,.159,.605-.745c.425-.541,.507-1.238,.282-1.842,1.288-1.196,2.187-2.753,2.402-4.232v-.004c1.097-7.74,1.097-15.595,0-23.351-.48-3.23-3.479-6.013-6.687-6.205-15.581-.906-31.384-.907-46.971,0-3.212,.192-6.214,2.975-6.695,6.211-1.097,7.749-1.097,15.604,0,23.348,.462,3.17,3.527,6.016,6.697,6.217,5.952,.345,12.121,.556,18.318,.636v7.346h-2.312c-.774,0-1.38,.671-1.38,1.528v2.583c0,.857,.606,1.528,1.38,1.528h12.239c.774,0,1.38-.671,1.38-1.528v-2.583c0-.857-.606-1.528-1.38-1.528h-2.313v-7.321c2.309-.011,4.607-.042,6.893-.091-.104,.048-.206,.105-.302,.173-.41,.289-.682,.722-.766,1.22l-.436,2.55c-.172,1.015,.5,1.985,1.491,2.16l.909,.167-.818,.485c-.87,.523-1.165,1.668-.662,2.543l1.253,2.249c.247,.437,.65,.749,1.133,.877,.482,.126,.977,.055,1.395-.196l.753-.444-.309,.877c-.344,.972,.132,2.023,1.092,2.396l2.347,.877c.455,.176,.953,.161,1.398-.042,.454-.206,.811-.597,.984-1.078l.285-.812,.288,.82c.17,.473,.527,.863,.981,1.069,.241,.111,.497,.166,.752,.166,.217,0,.432-.04,.636-.119l2.369-.884c.949-.368,1.424-1.419,1.08-2.392l-.307-.87,.736,.435c.424,.254,.919,.326,1.4,.199,.483-.128,.885-.439,1.136-.882l1.251-2.247c.49-.886,.193-2.026-.668-2.542l-.813-.483,.902-.166c.998-.176,1.67-1.146,1.497-2.165l-.444-2.543ZM3.698,35.43c-1.072-7.564-1.072-15.24,0-22.807,.344-2.31,2.649-4.456,4.933-4.592,7.757-.452,15.564-.677,23.375-.677s15.62,.226,23.373,.677c2.281,.136,4.582,2.282,4.925,4.586,1.072,7.573,1.072,15.248,0,22.811-.151,1.041-.83,2.198-1.787,3.096l-1.179-1.022c-.378-.33-.862-.488-1.356-.444-.492,.044-.953,.29-1.262,.673l-.534,.656v-.892c0-1.029-.828-1.866-1.847-1.866h-2.5c-1.018,0-1.846,.837-1.846,1.866v.893l-.532-.653c-.311-.386-.754-.625-1.248-.671-.504-.05-.981,.106-1.371,.437l-1.895,1.65c-.104,.086-.195,.183-.275,.286-.027,.035-.047,.074-.072,.11-.048,.071-.094,.142-.131,.219-.022,.046-.038,.095-.057,.143-.028,.071-.054,.143-.072,.216-.013,.052-.021,.104-.03,.157-.012,.074-.021,.147-.024,.222-.001,.025-.008,.05-.008,.076-11.168,.266-22.772,.076-33.642-.555-2.294-.145-4.602-2.294-4.937-4.595Zm32.553,18.214h-11.211v-1.852h11.211v1.852Zm-7.519-3.746v-7.131h3.826v7.131h-3.826Zm14.51-7.45l.05,.062-.306-.056c.085-.002,.171-.003,.256-.005Zm15.298,4.637c-.412,.076-.725,.414-.77,.829-.035,.322-.098,.626-.158,.93-.079,.394,.1,.795,.446,1l1.701,1.017-1.163,2.22-1.734-1.023c-.365-.215-.829-.161-1.137,.133-.214,.206-.446,.403-.686,.593-.319,.25-.443,.677-.308,1.06l.713,1.923-2.279,.905-.682-1.942c-.134-.382-.493-.633-.894-.633-.018,0-.037,0-.056,.002-.286,.015-.597,.015-.882,0-.437-.038-.81,.233-.95,.632l-.602,1.917-2.327-.871,.682-1.933c.137-.388,.008-.821-.32-1.07-.245-.186-.473-.38-.684-.582-.308-.294-.773-.349-1.137-.132l-1.647,1.045-1.273-2.238,1.724-1.023c.354-.209,.532-.624,.44-1.025-.068-.296-.118-.593-.153-.906-.046-.416-.359-.752-.77-.828l-1.927-.338,.372-2.534,1.961,.36c.43,.077,.846-.141,1.029-.529,.122-.261,.271-.526,.432-.767,.231-.347,.208-.804-.055-1.126l-1.029-1.255s0,0,0,0l-.246-.3,1.857-1.618,1.238,1.521c.269,.33,.726,.441,1.114,.27,.267-.116,.542-.216,.825-.299,.403-.119,.68-.489,.68-.909l-.047-2.037,2.453-.027v2.064c0,.42,.276,.79,.68,.909,.283,.083,.558,.183,.825,.299,.098,.043,.199,.068,.301,.076,.306,.025,.612-.099,.813-.346l1.183-1.567,1.79,1.553s.001,0,.002,.001l.002,.002,.128,.104-1.278,1.573c-.262,.322-.283,.777-.053,1.123,.144,.216,.282,.467,.422,.767,.183,.388,.597,.609,1.029,.529l1.888-.381,.477,2.523-1.96,.36Z" fill="#58ab05" class="color000000 svgShape"></path>
  <path d="M51.087,43.17c-2.106,0-3.819,1.755-3.819,3.911s1.713,3.911,3.819,3.911,3.819-1.755,3.819-3.911-1.713-3.911-3.819-3.911Zm0,5.929c-1.061,0-1.925-.905-1.925-2.018s.864-2.018,1.925-2.018,1.925,.905,1.925,2.018-.864,2.018-1.925,2.018Z" fill="#58ab05" class="color000000 svgShape"></path>
</svg>
