<svg xmlns="http://www.w3.org/2000/svg" fill-rule="evenodd" stroke-linejoin="round" stroke-miterlimit="2" clip-rule="evenodd" viewBox="0 0 64 64" id="EasytoUse">
  <path d="m21.728 32.423 16.97-16.97a1 1 0 0 1 1.415 0l1.38 1.38a5.048 5.048 0 0 1 0 7.138l-6.33 6.33 1.415 1.415c.187.187.292.442.292.707v3.828L38.7 38.08c.187.187.293.442.293.707v3.828l1.828 1.829c.188.187.293.442.293.707v4.242a1 1 0 0 1-.293.707L30.214 60.707a1 1 0 0 1-1.415 0L14.657 46.565a1 1 0 0 1 0-1.414l1.955-1.955a4.987 4.987 0 0 1-.127-1.116v-3.586L8.294 30.3a1 1 0 0 1 0-1.414l1.415-1.414a4.999 4.999 0 0 1 7.07 0zm17.678-14.85-16.97 16.971a1 1 0 0 1-1.415 0l-5.657-5.657a3 3 0 0 0-4.242 0l-.707.707 7.778 7.778c.187.188.293.443.293.708v4c0 .362.065.719.19 1.052a1 1 0 0 1-.23 1.058l-1.667 1.668 12.728 12.728 9.606-9.606v-3.415l-1.828-1.829a1 1 0 0 1-.294-.706l.001-3.829-1.829-1.829a1 1 0 0 1-.293-.706v-3.829l-1.828-1.828a1 1 0 0 1 0-1.415l7.037-7.037a3.048 3.048 0 0 0 0-4.31z" fill="#022e97" class="color000000 svgShape"></path>
  <path d="M35.707 47.293a1 1 0 0 1 0 1.414 1 1 0 0 1-1.414 0 1 1 0 0 1 0-1.414 1 1 0 0 1 1.414 0zM29.88 54.535l2.828-2.828a1 1 0 0 0-1.415-1.414l-2.828 2.828a1 1 0 0 0 1.414 1.414zm2.34-36.286A7.008 7.008 0 0 1 39 13c3.862 0 7 3.138 7 7a7.006 7.006 0 0 1-4.376 6.491 1 1 0 1 0 .751 1.854A9.006 9.006 0 0 0 48 20c0-4.967-4.033-9-9-9-4.19 0-7.715 2.87-8.715 6.75a1 1 0 0 0 1.936.5z" fill="#022e97" class="color000000 svgShape"></path>
  <path d="M27.999 19.999c0-6.071 4.929-11 11-11 6.07 0 11 4.929 11 11 0 5.446-3.967 9.973-9.166 10.848a1 1 0 1 0 .33 1.972C47.31 31.785 52 26.436 52 19.999c0-7.175-5.826-13-13-13-7.175 0-13 5.825-13 13a1 1 0 0 0 2 0z" fill="#022e97" class="color000000 svgShape"></path>
  <path d="M24 20c0-8.279 6.721-15 15-15s15 6.721 15 15c0 7.644-5.729 13.96-13.124 14.884a.999.999 0 1 0 .248 1.984C49.505 35.821 56 28.663 56 20c0-9.383-7.617-17-17-17s-17 7.617-17 17a1 1 0 0 0 2 0z" fill="#022e97" class="color000000 svgShape"></path>
</svg>
