<svg xmlns="http://www.w3.org/2000/svg" xml:space="preserve" id="InteractiveDisplay" x="0" y="0" enable-background="new 0 0 38 38" version="1.1" viewBox="0 0 38 38">
  <g id="_x34_9" fill="#000000" class="color000000 svgShape">
    <path fill="#1d432c" d="M12.9125328,30.2402821L7.8254886,32.98629c-0.0344677,0.2642708-0.0804362,0.5888557-0.0804362,0.5888557
				s-1.1403384,0-1.1432133-0.0028763c-0.2355399,0-0.5199056-0.1292419-0.5514979-0.4567032L2.9998429,5.1181941
				c-0.0172338-0.1665869,0.077543-0.304492,0.2096803-0.3648014C3.3099411,4.7060723,4.6571021,4.0712457,4.556684,4.118566
				c0,0,0.5170307,0.7784472,0.5716071,0.9134417c0.0545764,0.1379051,0.0517011,0.4682045-0.1493535,0.5802326
				c-0.03161,0.0172162-0.0632019,0.0315924-0.1005449,0.0430932l5.5006728,3.6594477
				c0.4021263,0.2671146,0.6664009,0.6951008,0.7267103,1.1719313l2.3008032,18.8430023
				C13.452548,29.7060184,13.2543507,30.0708199,12.9125328,30.2402821z" class="color1d2943 svgShape"></path>
    <path fill="#4c755c" d="M12.5166512,10.0221529l2.3355598,19.3365784c0.046627,0.3860359-0.1536684,0.7598953-0.5008888,0.934927
				l-6.4290657,3.2408485c-0.230494,0.1161919-0.5060625-0.0337486-0.5336957-0.29039L4.2950368,4.5133119
				c-0.033628-0.3123188,0.3130827-0.5214832,0.5736814-0.3460917l6.9112625,4.6515064
				C12.1886978,9.0938063,12.4575739,9.5330429,12.5166512,10.0221529z" class="color4c5c75 svgShape"></path>
    <path fill="#f8fefa" d="M5.4919071,8.3102808l2.3572407,20.8096199c0.0168571,0.1488152,0.1690798,0.2421665,0.3093643,0.1897182
				l5.3838215-2.0128708c0.099144-0.0370674,0.1602354-0.136961,0.1480627-0.2421055l-1.7776108-15.3544302
				c-0.0083771-0.07236-0.0505066-0.1364851-0.1135931-0.1729012L5.8357396,8.0849934
				C5.6721044,7.9905376,5.4706407,8.1225414,5.4919071,8.3102808z" class="colorf8f9fe svgShape"></path>
    <path fill="#6ff9a5" d="M10.7311468,23.6137047c-0.0228853,0-0.0429106-0.0152588-0.0476789-0.0381432
					c-0.0323324-0.1454983,0.3537292,0.0346642,0.8286629-0.575964c0.0407076-0.052681,0.1163969,0.0120049,0.0762863,0.0610294
					C11.1884212,23.549511,10.8325176,23.568306,10.7311468,23.6137047z M9.7994976,23.4802017
					c-0.0076284,0-0.0143042-0.0019054-0.0219326-0.0047665c-0.264142-0.1315956-0.5168409-0.3394756-0.7523756-0.6188755
					c-0.0425549-0.0520115,0.035162-0.1108685,0.074379-0.0629368c0.5146027,0.6097393,0.7960205,0.5467224,0.7437944,0.6598797
					C9.8347797,23.4706669,9.8176155,23.4802017,9.7994976,23.4802017z M11.9975042,22.2319641
					c-0.0047684,0-0.0104895-0.0009537-0.0152578-0.0019073c-0.1030502-0.0343494,0.0580015-0.1235237,0.1783199-0.9898186
					c0.0099106-0.0644188,0.1063738-0.0504074,0.0972652,0.0133514c-0.0486326,0.3499641-0.1201515,0.6675072-0.2136021,0.9449997
					C12.0366011,22.2195683,12.0175295,22.2319641,11.9975042,22.2319641z M8.5350475,22.0717621
					c-0.0859919,0-0.4000683-0.8335457-0.4291115-0.914484C8.08284,21.097229,8.1769733,21.0633354,8.1974802,21.124855
					c0.1153831,0.3184967,0.2431631,0.6131535,0.3804789,0.8753891c0.0123968,0.023838,0.0038147,0.0534-0.0200253,0.0657959
					C8.5503054,22.0698547,8.5426769,22.0717621,8.5350475,22.0717621z M12.2797642,20.3371964h-0.0009537
					c-0.0267,0-0.0486326-0.0228863-0.0476789-0.0495853c0.0048628-0.282032-0.0008059-0.5831013-0.0286074-0.9564438
					c-0.0047216-0.0660973,0.0925798-0.0708809,0.0972652-0.0076275c0.0273819,0.3716049,0.0335913,0.6769199,0.0286074,0.9659786
					C12.3283968,20.3162174,12.3064642,20.3371964,12.2797642,20.3371964z M7.8723087,20.2694931
					c-0.0219326,0-0.0419579-0.0143051-0.0476794-0.0371895c-0.07724-0.3089619-0.1430373-0.6274586-0.1945305-0.946907
					c-0.0093584-0.0655098,0.0862856-0.0767441,0.0972652-0.0152588c0.05054,0.3165894,0.1153836,0.632225,0.1926236,0.9392796
					c0.0066752,0.0257454-0.0095358,0.0524464-0.0362363,0.0591221C7.8799372,20.2694931,7.876123,20.2694931,7.8723087,20.2694931z
					 M12.1376801,18.4214516c-0.023839,0-0.0448179-0.0171661-0.0486326-0.0410042
					c-0.05054-0.3184967-0.1153831-0.6341324-0.1916695-0.9383259c-0.0148258-0.0571842,0.0754747-0.0924778,0.0953579-0.0228863
					c0.0762863,0.3061008,0.1420841,0.6245975,0.1935768,0.9459534c0.0038147,0.026701-0.0143032,0.0514946-0.0410032,0.056263
					C12.1424484,18.4214516,12.1405411,18.4214516,12.1376801,18.4214516z M7.5633478,18.3718643
					c-0.0257463,0-0.0467253-0.0190716-0.0486326-0.0448189c-0.0274386-0.3423862-0.0366597-0.7115955-0.0314679-0.9659786
					c0-0.0641975,0.0996027-0.0635395,0.0972652,0.0019073c-0.0050354,0.2467251,0.0039105,0.6006966,0.0314684,0.9564438
					c0.0019069,0.0266991-0.0181184,0.050539-0.0448184,0.0524464C7.5662088,18.3718643,7.5643015,18.3718643,7.5633478,18.3718643z
					 M11.6637506,16.5600586c-0.1000242,0-0.0435829-0.1962452-0.442462-0.8982744
					c-0.0315151-0.0540247,0.0524988-0.1060228,0.0839148-0.0476789c0.1468515,0.2555599,0.2832136,0.552124,0.4043188,0.8801556
					c0.0095358,0.0257473-0.0038147,0.0534019-0.0286074,0.0629368
					C11.6751928,16.5591049,11.6694717,16.5600586,11.6637506,16.5600586z M7.5995841,16.4513512
					c-0.0019073,0-0.0038142,0-0.0066752,0c-0.0267-0.0038147-0.0448179-0.0286083-0.0419574-0.0553093
					c0.0476789-0.3518715,0.1182442-0.6703672,0.2126489-0.9459524c0.0085821-0.0257463,0.0381432-0.0381432,0.061029-0.0305147
					c0.1040158,0.0346718-0.0640798,0.1403027-0.1764126,0.9898186C7.6444025,16.434185,7.6234236,16.4513512,7.5995841,16.4513512z
					 M10.6901426,14.8731728c-0.5082912-0.5861588-0.8005419-0.5487261-0.7485609-0.6570187
					c0.0123959-0.0247927,0.0438643-0.0324211,0.0657969-0.0219316c0.2631884,0.1344547,0.5244703,0.3471031,0.757144,0.6160135
					C10.8063002,14.8589773,10.7315702,14.9228849,10.6901426,14.8731728z M8.2346697,14.5937729
					c0.1014786-0.1014786,0.3563099-0.4281721,0.8076839-0.5387735c0.0570145-0.023756,0.0902777,0.0785103,0.0228863,0.0953579
					c-0.2679567,0.0657969-0.5177956,0.2307673-0.7428408,0.4920483c-0.0057211,0.0066748-0.0123968,0.0133505-0.0190716,0.0200253
					C8.2584734,14.7072849,8.1885471,14.6398954,8.2346697,14.5937729z" class="color986ff9 svgShape"></path>
    <path fill="#8afdb7" d="M11.7065334,18.7367096c0.3272371,2.3599854-0.2143774,4.3181705-1.2089348,4.3705425
				c-0.9945574,0.0523701-2.0674305-1.8207989-2.3946686-4.1807861c-0.3272138-2.3598156,0.2144003-4.3180008,1.2089577-4.3703718
				S11.3793192,16.376894,11.7065334,18.7367096z" class="colorb28afd svgShape"></path>
    <path fill="#8afdb7" d="M11.7065334,18.7367096c0.3272371,2.3599854-0.2143774,4.3181705-1.2089348,4.3705425
				c-0.9945574,0.0523701-2.0674305-1.8207989-2.3946686-4.1807861c-0.3272138-2.3598156,0.2144003-4.3180008,1.2089577-4.3703718
				S11.3793192,16.376894,11.7065334,18.7367096z" class="colorb28afd svgShape"></path>
    <path fill="#6ff9a5" d="M10.4565153,22.8155556c-0.7180471,0-1.7421942-1.6134605-2.0635509-3.9287567
				C8.1679192,17.2590351,8.367218,15.7409315,8.88978,15.1077538c0.1354094-0.1640167,0.2832146-0.2517462,0.4376945-0.2593746
				c0,0,0,0,0.0009537,0c0.7428398,0,1.7669868,1.6134605,2.0883446,3.9287567
				c0.2250452,1.626812,0.0257463,3.1449146-0.4968166,3.7780914c-0.1354084,0.1640167-0.2832136,0.2517471-0.4376936,0.2593746
				L10.4565153,22.8155556z" opacity=".9" class="color986ff9 svgShape"></path>
    <path fill="#c6f5d8" d="M17.8548813,21.2116318c0,0-0.1756973,0.4394817-0.7128029,0.4297066
				c-0.5371056-0.0195484-1.8553133-0.1562672-1.9529362-0.253891c-0.0976229-0.0878487-0.3417397-0.6347275-0.3417397-0.6347275
				c-0.4492559-0.5760822-0.6445017-1.3084335-0.6835985-2.1481819c0.9764671-0.0586452,1.8944101-0.0879669,2.499814,0
				c0.0878487,0.3417397,0.0781937,0.722578-0.0586452,1.0057907c-0.0097733,0.0195484-0.0293217,0.0487518-0.0390968,0.0683002
				c-0.0292034,0.0390968-0.009655,0.0976238,0.0293236,0.1073971c0.0195484,0,0.0293217,0.0097752,0.0488701,0.0195484
				C17.376421,20.0301437,17.8451061,20.6355495,17.8548813,21.2116318z" class="colorf5c9c6 svgShape"></path>
    <path fill="#4c755c" d="M28.1858788,26.9157333l1.8465672-7.5646439l4.1058292,1.1718769
				c2.0001526,0.570879,0.1665039,8.1392117-1.8465652,7.5646458L28.1858788,26.9157333z" class="color4c5c75 svgShape"></path>
    <path fill="#7fb293" d="M28.1858788,26.9157333l0.0162964-0.0667553c0.2925072-0.4260616,0.587965-1.0958538,0.851511-1.8665619
				l5.0837536,1.4509964c-0.4928665,1.0925159-1.1585197,1.8503418-1.8457298,1.6541996L28.1858788,26.9157333z" opacity=".3" class="color7f8eb2 svgShape"></path>
    <path fill="#059f41" d="M30.0022106,19.474947l0.0302353-0.1238575l4.1058292,1.1718769
				c0.6783905,0.1936264,0.9161072,1.1888866,0.8484917,2.3924522l-5.0661716-1.4459763
				C30.0297184,20.6750603,30.0691376,19.9729939,30.0022106,19.474947z" class="color31445b svgShape"></path>
    <path fill="#7fb293" d="M28.45257,22.9437656c0.5102367-2.0902348,1.214838-3.6976433,1.5763378-3.5944633
				c0.8670368,0.247467-0.9885578,7.8103123-1.843029,7.566431C27.824379,26.8125553,27.9423332,25.0340004,28.45257,22.9437656z" class="color7f8eb2 svgShape"></path>
    <path fill="#059f41" d="M30.0679264,19.707674c0.3130798,1.1671658-1.2667885,7.1390915-1.8262348,6.9794159
				c-0.0792656-0.0226231-0.1218319-0.1571827-0.1323566-0.3843594
				C28.0430241,24.146328,29.7835236,18.5570736,30.0679264,19.707674z" class="color31445b svgShape"></path>
    <path fill="#51f490" d="M27.4482174,26.106863l1.6329098-6.6742001l0.9877186,0.2819252
				c0.2506599,0.9344559-0.7939396,5.4442883-1.5453777,6.7129841L27.4482174,26.106863z" class="colorf45170 svgShape"></path>
    <path fill="#35e97b" d="M29.0777283,19.4314079c0.7626495,0.2176743-0.8668671,6.8931274-1.6295109,6.6754551
				C26.6855602,25.8891869,28.3150959,19.2137394,29.0777283,19.4314079z" class="colore93565 svgShape"></path>
    <path fill="#35e97b" d="M29.0777283,19.4314079c0.7626495,0.2176743-0.8668671,6.8931274-1.6295109,6.6754551
				C26.6855602,25.8891869,28.3150959,19.2137394,29.0777283,19.4314079z" class="colore93565 svgShape"></path>
    <path fill="#e7fcef" d="M31.04109,20.7467327c0.0673065-0.3738155,0.4264832-0.5907078,0.8019867-0.4842892
				c0.3757687,0.1064949,0.625494,0.4959526,0.5581875,0.8697681c-0.0673523,0.3740768-0.4262657,0.5910435-0.8020325,0.4845505
				C31.2237282,21.5103416,30.9737377,21.1208076,31.04109,20.7467327z" class="colore9e7fc svgShape"></path>
    <path fill="#cef2dc" d="M31.04109,20.7467327c0.1275997-0.708683,1.1363964-0.6673946,1.3427906,0.0618668
				c-0.5304356-0.4570789-1.2642689-0.010664-1.0763321,0.6501884C31.1047516,21.2844696,30.9933739,21.0117455,31.04109,20.7467327
				z" class="colord0cef2 svgShape"></path>
    <path fill="#10cc59" d="M27.5068359,25.8447304c-0.5998039-0.1725845,0.922327-6.3473186,1.5196934-6.1754341
				C29.6184921,19.8396263,28.0997963,26.0153484,27.5068359,25.8447304z" class="colorcc104a svgShape"></path>
    <path fill="#d4f4e0" d="M29.1474514,20.1318054c0.0102806,1.2016048-0.5678959,3.5251541-1.052,4.7791481
				c-0.6446533-0.2552814-1.2161884-0.5317097-2.1674633-0.4173737c-2.5165024,0.3002167-4.8377247,0.2538261-6.6976414-0.7127361
				c-1.2118473-0.6420727-1.7305412-0.0154858-5.48701-1.1691704c-1.5480614-0.5213394-0.7682829-1.8500023,0.5809202-1.7329578
				c2.3609753,0.0483761,5.6630726,1.0414581,5.0989113-0.6932182c-0.1806202-0.5491886-0.6541424-0.9470463-1.2106609-1.1057072
				c-2.7818699-0.8023529-5.5686932,0.5017128-6.9246511,0.6199837c-0.917757,0.0781231-1.5255232-0.1196003-1.6451216-0.7517967
				c-0.0390472-0.1806202,0.0781088-0.3612404,0.24897-0.4295902c6.5074291-2.5903616,5.35921-1.075388,10.3515797-3.3341608
				c0.4857254-0.2294245,1.2057743-0.0048866,1.7403183,0.4759512c0.6419411,0.5809498,1.3058414,1.1423244,2.0332203,1.6158619
				c3.2638206,2.1237659,3.5177574,3.1312542,4.6741924,2.8996849
				C28.8496761,20.1513214,29.0010071,20.1342487,29.1474514,20.1318054z" class="colorf4d6d4 svgShape"></path>
    <path fill="#c6f5d8" d="M29.1429062,20.1278858c0.0205326,1.2098656-0.5667286,3.4931622-1.0448875,4.7845974
				c-0.7375507-0.2927341-1.2376003-0.5272388-2.1677303-0.4198151c-2.5193634,0.3026428-4.8432407,0.253891-6.698555-0.7128029
				c-1.2345009-0.6499672-1.7150002-0.0109615-5.4877443-1.171833c-0.9471455-0.3124161-1.122962-1.0154457-0.4686852-1.4744759
				c0.2147942-0.1464939,0.4589109-0.2343426,0.7128019-0.2441158c3.7572269,1.0996475,4.0357819,0.4483204,5.2436275,1.0838642
				c1.8553143,0.9666939,4.1791916,1.015564,6.698555,0.7128029c0.9825077-0.1132431,1.552578,0.2136593,2.1677303,0.4199333
				c0.3186607-0.8604584,0.6151485-1.8995152,0.8203201-2.9587269
				C28.9964123,20.1376591,29.0647125,20.1278858,29.1429062,20.1278858z" opacity=".5" class="colorf5c9c6 svgShape"></path>
    <path fill="#c6f5d8" d="M29.1429062,20.1278858c0.0205326,1.2098656-0.5667286,3.4931622-1.0448875,4.7845974
				c-0.7375507-0.2927341-1.2376003-0.5272388-2.1677303-0.4198151c-2.5193634,0.3026428-4.8432407,0.253891-6.698555-0.7128029
				c-1.2345009-0.6499672-1.7150002-0.0109615-5.4877443-1.171833c-0.7323503-0.2441158-1.0057907-0.7225761-0.7812214-1.1327362
				c0.1172905,0.2343426,0.3808365,0.4394836,0.7812214,0.5664291c3.7904444,1.1659603,4.2408953,0.515646,5.4877443,1.1717129
				c1.8553143,0.9666939,4.1791916,1.0057907,6.698555,0.7128029c0.9723682-0.1120739,1.5645771,0.1803532,2.1677303,0.4101582
				c0.4844036-1.28405,0.8990746-3.0450211,1.0155659-4.2085133H29.1429062z" opacity=".6" class="colorf5c9c6 svgShape"></path>
    <path fill="#bde5cd" d="M25.9280243,24.4936218c-5.3409786,0.8171711-6.5133839-0.7863197-7.6148281-0.934391
				c-1.5442829-0.1043167-3.1092176-0.4213142-4.5697966-0.9475365c1.5142317,0.4268131,3.029439,0.6726913,4.5990038,0.7721615
				C19.7003422,23.5551071,20.0498714,24.9412766,25.9280243,24.4936218L25.9280243,24.4936218z" class="colore5bdbe svgShape"></path>
    <path fill="#ffffff" d="M14.5538454,21.5874615c-0.0517321,0.2170525-0.0843267,0.4273605-0.0873346,0.6272678
				c-0.0012589,0.083662-0.0705376,0.1490173-0.153513,0.1382504l-0.5804033-0.0753098
				c-0.4606647-0.0597744-0.4370794-0.6285343-0.4069691-0.5283318c0.0335131-0.258276,0.2700548-0.4404812,0.5283298-0.4069691
				l0.5857744,0.0760078C14.520834,21.4289017,14.5728073,21.5079079,14.5538454,21.5874615z" class="colorffffff svgShape"></path>
    <path fill="#61ff9f" d="M17.8475742,27.5655346l-0.0232811,4.8311634l-0.0180378,1.4683456
					c-0.0540047,0.0179253-0.1261578,0.0156784-0.2162399,0.0128746c-0.1261578,0.0154381-0.2882824,0.029995-0.432478,0.0059013
					c-0.4444199-0.0742531-4.8031864-0.6489067-4.9376478-0.7019043c-0.0180378-0.0005608-0.0541143-0.0408936-0.0541143-0.0408936
					c-0.0179281-0.0005569-0.0179281-0.0005569-0.0179281-0.0005569l-0.0460443-5.5163555L17.8475742,27.5655346z" class="colorffb961 svgShape"></path>
    <path fill="#75ffab" d="M20.0588398,27.0366898c-0.0191669,6.1435738,0.0481625,5.7476234-0.0540047,5.8001328
					l-2.1444645,1.0103035c-0.0360775,0.0184784-0.1441956,0.0347176-0.2703552,0.0307922l-0.0143681-6.351593
					L20.0588398,27.0366898z" class="colorffd475 svgShape"></path>
    <path fill="#9bffc2" d="M20.0079937,27.1022987l-2.1567211,1.0701752
					c-0.1214008,0.0602398-0.4361954,0.0861263-0.7031155,0.0578175l-4.7420616-0.502924
					c-0.2669201-0.0283089-0.3848877-0.1000919-0.2634869-0.1603317l2.1567192-1.0701752
					c0.1214008-0.0602398,0.4361973-0.0861244,0.7031174-0.0578175l4.7420616,0.502924
					C20.0114269,26.9702759,20.1293926,27.0420589,20.0079937,27.1022987z" class="colorffde9b svgShape"></path>
    <path fill="#51f490" d="M17.3259335,12.2658072c0.0862923-0.3985147-0.3126011,1.4436378,0.8439426-3.8974648
					c0.0377884-0.0041904,0.145155-0.2062473,0.2036324-0.1918678c0.0845966,0.0074835,0.1925735,0.0205526,0.2834511,0.0563822
					c0.5282536,0.2082739,3.0264854,1.0784855,3.1290359,1.1464729c0.0117092,0.0028801,0.0296669,0.0342627,0.0296669,0.0342627
					c0.0116386,0.002862,0.0116386,0.002862,0.0116386,0.002862l-0.7353325,3.6192636L17.3259335,12.2658072z" class="colorf45170 svgShape"></path>
    <path fill="#5ffa9b" d="M15.8071852,12.3034029c0.8274145-3.8234262,0.7431135-3.7557898,0.8431997-3.7829237l1.5241661-0.3447371
					c0.0261497-0.0070524,0.1170597-0.0194063,0.1989574,0.0007324l-0.8753281,4.152833L15.8071852,12.3034029z" class="colorfa5f7f svgShape"></path>
    <path fill="#32df75" d="M15.8495531,12.2676096c1.650197-0.4224319,1.6146383-0.4731655,2.0260515-0.3388052
					c3.0455189,0.9946089,3.3900547,1.0765905,3.178793,1.1306715c-1.6501961,0.422431-1.6146393,0.4731646-2.0260525,0.3388052
					C15.9828272,12.4036722,15.6382914,12.3216906,15.8495531,12.2676096z" class="colordf3260 svgShape"></path>
    <path fill="#bde5cd" d="M16.6440697,19.8055744c-0.3808365,0.2636662-0.810544,0.2929878-1.2499075,0.3906116
				c0.4003859-0.1464939,0.917943-0.2734394,1.2010374-0.5956306l0.0097733,0.0097733
				c-0.0097733,0.0195484-0.0293217,0.0487518-0.0390968,0.0683002c-0.0292034,0.0390968-0.009655,0.0976238,0.0293236,0.1073971
				C16.614748,19.786026,16.6245213,19.7958012,16.6440697,19.8055744z" class="colore5bdbe svgShape"></path>
    <path fill="#4c755c" d="M10.6105766,9.5244713c0.3282261,0.173645,0.2336235,0.7069426,0.0391932,0.632679L7.4215503,8.1502647
				C7.1149793,7.9260097,7.145566,7.4787273,7.3823576,7.5175862L10.6105766,9.5244713z" class="color4c5c75 svgShape"></path>
    <g fill="#000000" class="color000000 svgShape">
      <path fill="#ffffff" d="M17.1744804,31.1672268l-0.6231155,0.4229984l0.5407314-0.5255775
						c0.0660896-0.0642376,0.0205975-0.1868591-0.0624886-0.2027836l-1.3545341-0.2596149l1.3794594,0.0204868
						c0.0857258,0.0012722,0.1535797-0.1103344,0.1018829-0.1865654l-0.4225407-0.6230793l0.5245514,0.5409584
						c0.0638714,0.0658684,0.1865349,0.0215378,0.2026138-0.0623379l0.2599106-1.3557625l-0.0209122,1.3801804
						c-0.0013027,0.0860596,0.1102734,0.1532669,0.1864986,0.1015797l0.6231918-0.422554l-0.5407524,0.5250854
						c-0.0661697,0.0642529-0.020916,0.1867962,0.0622292,0.2027321l1.3547497,0.259655l-1.3794575-0.0204868
						c-0.0857277-0.0012722-0.1535759,0.110323-0.1019001,0.1865711l0.4226284,0.623579l-0.5246391-0.5414448
						c-0.0638428-0.0658894-0.1865082-0.0215664-0.2026043,0.0622997l-0.2603378,1.3563519l0.0213242-1.3807297
						C17.362299,31.182663,17.2507191,31.1154709,17.1744804,31.1672268z" class="colorffffff svgShape"></path>
    </g>
    <g fill="#000000" class="color000000 svgShape">
      <path fill="#ffffff" d="M20.4319191,9.1981134c0.5937233,0.2973986,0.9365349,1.038332,0.8020802,1.6835489
				C21.0798912,10.2386436,20.8443012,9.7170467,20.4319191,9.1981134L20.4319191,9.1981134z" class="colorffffff svgShape"></path>
    </g>
    <g opacity=".07" fill="#000000" class="color000000 svgShape">
      <path fill="#11331e" d="M29.1429062,20.1278858c0.0205326,1.2098656-0.5667286,3.4931622-1.0448875,4.7845974
				c-0.0346184-0.0137291-0.5691299-0.225275-0.6054039-0.2343426c0.5470085-1.5312252,0.9420948-3.4221687,1.0349922-4.4917297
				c0.0429821,0.014328,0.1268311-0.0097733,0.1661625-0.0097733
				C28.8499184,20.1473141,28.9964123,20.1376591,29.1429062,20.1278858z" class="color111d33 svgShape"></path>
    </g>
    <g fill="#000000" class="color000000 svgShape">
      <path fill="#c6f5d8" d="M19.15938,15.4575987c0.5686264-0.2401342,1.3155994-0.7666779,1.9646225-0.5229998
				c0.6219006,0.126791,1.2160931,0.7328682,1.6833019,1.1242485c1.4520893,1.175005,3.1480923,2.3805084,4.5869293,3.5938549
				c0.4713058,0.514864,1.1012306,0.524334,1.7532177,0.4790497c-0.6336517,0.1669865-1.3794384,0.1756172-1.9022789-0.2919331
				c-1.5488758-1.0901508-3.2719994-2.2444592-4.7526951-3.4085789c-0.4983845-0.4163971-1.3939342-1.475668-2.2818909-1.0012951
				c-1.4922047,0.6472073-3.0659428,1.1996021-4.6952,1.3164196C16.1919136,16.5429974,17.1192741,16.4084549,19.15938,15.4575987z" class="colorf5c9c6 svgShape"></path>
    </g>
  </g>
</svg>
