<svg xmlns="http://www.w3.org/2000/svg" enable-background="new 0 0 75 75" viewBox="0 0 75 75" id="PaintPalette">
  <path d="M9.2328568,52.4829979c6.2637148,8.2417297,18.5389862,11.2431679,30.4849663,4.9435425
		c4.1669846-1.7678833,10.0309067-5.5598831,11.9240723-9.516819c0.9656601-1.9854698,1.1869278-4.3707161,0.0757484-6.4759293
		c0.5318718-0.900444,0.7811966-1.9238548,0.7425003-3.0583763c0.7581329-0.1516037,1.3895264-0.654129,1.7691956-0.9593048
		c4.0818672-3.2839661,6.1246567-5.1463966,10.7410736-10.4166622c4.1263351-4.7102985,4.2248688-4.5554447,4.4521713-5.2588291
		c0.2028656-0.6326523-0.0026245-1.3116474-0.5032349-1.6531124c-0.7515793-0.5067329-1.6181412-0.0100555-1.9036407,0.1543369
		c-5.5126152,3.1723766-9.1551285,5.4944859-15.6886063,10.5692501l0.0002708,0.0003281
		c-0.7211456,0.5347443-1.260479,0.982769-1.7351418,1.3266201c-0.4103279,0.2973633-0.9093018,0.6630402-1.2122383,1.1591682
		c-1.5103722-0.7209816-3.5971909-0.4508553-5.101593,1.55299c-0.4881516-0.6338539-0.7674217-1.2961235-0.8114738-1.9771957
		c-0.1390343-2.2131882,2.0160027-3.953743,4.0494919-5.4140434c3.2327728-2.3487225,4.5846443-4.6016941,4.1329994-6.883522
		c-0.3977699-2.0821953-2.3379021-3.4822311-4.2759705-4.3621006c-6.9322701-3.1617241-15.7912979-2.5819759-23.7001991,1.5511322
		c-4.6630688,1.9828281-8.7373171,4.9727268-11.7850924,8.6517315C4.7920885,33.8004265,3.3643489,44.7105293,9.2328568,52.4829979z
		 M67.6846466,21.4065857c0.3191681-0.1831932,0.4529572-0.1984959,0.4625778-0.2186069
		c0.0992355,0.2977009-0.2806244,0.46661-4.1872139,4.9265461c-2.637886,3.0116501-4.7657051,5.4272652-8.6343536,8.652935
		l-2.6357002-3.310379C59.0537376,26.5708809,62.2324829,24.5433369,67.6846466,21.4065857z M45.4583549,34.6275482
		c0.8759613-0.4960747,1.9794388-0.4443741,2.6558113,0.0626869l-0.0005989,0.0409355l0.289547,0.2280617l0.025959,0.0293465
		c0.7085304,0.8486557,1.2844887,2.6178436,2.689476,3.2305336c0.2057419,2.8560715-1.8130722,4.3880386-4.5368233,5.2708511
		c-0.1365433-0.9154892-0.3835182-1.1567879-0.7600441-1.5819016c-0.8755226-0.9939079-0.6531525-1.2072411-1.2311974-2.1747093
		c-0.2969246-0.5223083-0.9421997-0.96455-1.6149673-1.173214C43.4824333,37.1407013,44.1066742,35.406765,45.4583549,34.6275482z
		 M36.6585197,15.535655c3.2480736,0,6.3715401,0.6287165,9.1583519,1.9001398
		c4.4407806,2.0159206,5.1087303,5.1602058-0.0870056,8.934063c-1.6775932,1.2049656-4.8006248,3.4474449-4.6034431,6.5884018
		c0.0712662,1.1017838,0.5408363,2.1427956,1.4043388,3.1042328c-0.3876038,0.7644997-0.9369926,2.3650665-0.90411,2.2753792
		l-0.0092354-0.0018578c-0.3189774,0.7627335-0.7027855,2.2198677-1.8428612,3.2297096
		c-0.8240356,0.7106705-0.6299324,2.0253677,0.3021126,2.5362892c1.5439339,0.8552437,3.4901314,1.293602,5.5848312,0.9796333
		l0.0202751,0.0272713c0.0896263-0.0190125,0.9819832-0.2083282,0.8923569-0.189312l0.0026245-0.0251961
		c1.4018784-0.3810883,3.1204414-1.1903801,4.2226257-2.2605667c0.5355911,1.3724174,0.4022408,3.1112251-0.3659477,4.6900101
		c-0.1593132,0.2113762-0.6146698,1.7772865-3.7854118,4.3568535c-12.1064339,9.811367-26.9166508,8.2228851-34.0162506-1.1192703
		c-5.4688478-7.2397842-3.9579144-17.6444397,1.6211958-24.3922596c2.4826651-3.0177803,5.7657347-5.510334,9.0320005-7.2088108
		l-0.0000553-0.0001087C23.810133,18.7598133,29.2747803,15.535655,36.6585197,15.535655z" fill="#d20609" class="color000000 svgShape"></path>
  <path d="M40.8444214 25.7087879c1.5416222-.3375301 2.7933693-1.5949631 3.1151619-3.1287155.3226624-1.5403099-.355896-3.2275257-1.6504898-4.1028309-2.2118835-1.4945641-5.7065659-.261858-6.3798523 2.3216152C35.1891365 23.6368389 37.8988228 26.3571892 40.8444214 25.7087879zM37.2286453 21.1381359c.4439621-1.6999016 2.8972282-2.5140419 4.3284378-1.5481796.8407631.5688171 1.2985306 1.7103863 1.0882263 2.7146702-.2120476 1.0086575-1.0707397 1.8690968-2.0885773 2.092514C38.6308136 24.8153458 36.7321548 23.0445309 37.2286453 21.1381359zM30.0674934 26.8368034c1.5420589-.3379669 2.793808-1.5949612 3.1147232-3.1282768.3226662-1.5407486-.3558922-3.2275257-1.6500511-4.1028309-2.2170563-1.4977646-5.7069893-.2565746-6.3798504 2.3216152C24.4120865 24.7605228 27.1152172 27.4866753 30.0674934 26.8368034zM26.4517193 22.2665901c.4445877-1.7023029 2.899147-2.5123711 4.328434-1.5481815.8403301.5688171 1.2980938 1.7103882 1.0877934 2.7146721-.2116127 1.0086575-1.0698662 1.86866-2.0881424 2.0920773C27.8439426 25.9478645 25.9567928 24.1626968 26.4517193 22.2665901zM20.0071621 34.2445488c1.5420589-.3379669 2.7942448-1.5949631 3.11516-3.1282787.3226662-1.5407467-.3558922-3.2275257-1.6500511-4.1028309-2.2208652-1.5009556-5.7083998-.2511692-6.3798504 2.3216152C14.3525581 32.1679497 17.0546875 34.8944626 20.0071621 34.2445488zM19.3679523 38.7120171c-2.2128048-1.4958-5.7070065-.2601585-6.3798504 2.3216171-.738904 2.8333626 1.9628925 5.5593681 4.9151783 4.9094925 1.5416222-.337532 2.7933693-1.5949631 3.11516-3.1282768C21.3411064 41.2745399 20.6625481 39.5873222 19.3679523 38.7120171zM19.7041702 42.539402c-.2116108 1.0086555-1.0707397 1.86866-2.0885773 2.0920792-1.9365797.4215775-3.8221741-1.3614082-3.3280859-3.2585678.4454851-1.7057419 2.9005899-2.5114822 4.3284349-1.5481834C19.456707 40.3935471 19.9144726 41.5351181 19.7041702 42.539402zM21.6235485 48.8265648c-.7401085 2.8379784 1.9695816 5.5583305 4.9151764 4.9099312 1.5416222-.3379707 2.7933712-1.5949631 3.1151619-3.1287155.3226643-1.5403099-.3558941-3.2275276-1.6504898-4.1028328C25.7818737 45.0050774 22.294178 46.2532806 21.6235485 48.8265648zM22.9229527 49.165844c.4454842-1.7057381 2.9011955-2.5110741 4.328434-1.5481834.840765.568821 1.2985306 1.7103882 1.0882301 2.7146721-.2116127 1.0086594-1.0707417 1.8690987-2.0885792 2.092514C24.3139877 52.8459473 22.4289474 51.0626869 22.9229527 49.165844zM33.3955765 47.6570129c-.7429924 2.8437881 1.9762764 5.5558891 4.9147415 4.9090538 1.5420609-.3379669 2.7942467-1.5953979 3.1151619-3.1287117.3226662-1.5403137-.3558922-3.2270889-1.6500511-4.1023941C37.5631409 43.8395081 34.0688553 45.0735703 33.3955765 47.6570129zM40.1112099 49.1619072c-.2116127 1.0086555-1.0703049 1.8690987-2.0885811 2.092514-1.9276237.4210129-3.8243866-1.3555069-3.3276443-3.2585678.0538406-.0908203.2558098-1.1952515 1.7116966-1.7444916C38.7017174 45.3861504 40.5154533 47.2314453 40.1112099 49.1619072zM30.189476 36.4905243c.9156456 2.7959366 4.5347328 4.7302742 6.5363731 4.3266869 1.1144638-.2225418 2.2031288-1.2207069 2.0960121-2.5052452-.1020317-1.220108-1.1856995-1.908474-1.461174-2.6692009-.4075394-1.1341515.8360863-2.8863068-.0297318-4.4661579-.4328423-.8175945-1.3929672-1.3015919-2.357029-1.1992836C31.6997585 29.8837757 29.1014347 33.1797485 30.189476 36.4905243zM34.9957886 31.3208885c.0354118-.0013123.068203-.001749.1023064-.0056839.4184151-.0572758.868309.1547737 1.0506287.4984245.2483406.4529572.1420975 1.0960999.0017509 1.7632904-.170517.7764969-.3637657 1.6566124-.0533409 2.521862.3596115.9915543 1.3306122 1.6582756 1.3859711 2.3251114.0419731.5058594-.5041084.9732399-1.0217705 1.0764236-1.3072853.26688-4.2866859-1.2636948-4.9956264-3.4286423C30.7001648 33.7421532 32.4549789 31.2720261 34.9957886 31.3208885z" fill="#d20609" class="color000000 svgShape"></path>
</svg>
