<svg xmlns="http://www.w3.org/2000/svg" enable-background="new 0 0 64 64" viewBox="0 0 64 64" id="UsingPhone">
  <path fill="#20d265" d="M27.014 16.271c-.55.091-1.061.211-1.518.367-5.121 1.772-7.427-.935-9.729.352-.937 3.207 2.829 4.465 12.16 5.1L27.014 16.271zM26.058 27.292l-.61-3.884c-.405.065-.784.153-1.119.275-3.771 1.374-5.517-.904-7.204.117-.562 2.28 1.47 3.412 6.521 4.122-2.902.514-4.429-1.129-5.91-.233-.65 2.63 2.158 3.735 9.08 4.422L26.058 27.292z" class="colord22027 svgShape"></path>
  <path d="M43.168,48.523c0,0.688-0.555,1.236-1.238,1.236H21.975c-0.684,0-1.238-0.549-1.238-1.236V7.74
	c0-0.684,0.554-1.24,1.238-1.24H41.93c0.684,0,1.238,0.557,1.238,1.24V48.523z" fill="#000000" class="color000000 svgShape"></path>
  <path fill="#ffffff" d="M42.249,47.731c0,0.656-0.515,1.188-1.15,1.188H22.806c-0.637,0-1.152-0.532-1.152-1.188V8.536
	c0-0.658,0.515-1.19,1.152-1.19h18.292c0.636,0,1.15,0.532,1.15,1.19V47.731z" class="colorffffff svgShape"></path>
  <polyline fill="#059f41" points="30.276 7.864 23.341 7.864 23.341 8.195 30.276 8.195" class="color1fb2d0 svgShape"></polyline>
  <polyline fill="#059f41" points="40.562 7.864 33.627 7.864 33.627 8.195 40.562 8.195" class="color1fb2d0 svgShape"></polyline>
  <circle cx="31.952" cy="8.029" r=".421" fill="#20d265" class="colord22027 svgShape"></circle>
  <path fill="#059f41" d="M32.596,46.725h-0.165c-0.001,0.264-0.214,0.477-0.478,0.479c-0.266-0.002-0.479-0.215-0.48-0.479
	c0.001-0.264,0.214-0.479,0.48-0.481c0.264,0.003,0.477,0.218,0.478,0.481H32.596h0.168c0-0.45-0.365-0.813-0.811-0.813
	c-0.451,0-0.813,0.362-0.815,0.813c0.002,0.448,0.364,0.813,0.815,0.813c0.446,0,0.811-0.364,0.811-0.813H32.596z" class="color1fb2d0 svgShape"></path>
  <polygon fill="#059f41" points="35.988 47.369 36.153 47.369 36.153 46.35 36.905 46.725 35.913 47.221 35.988 47.369 36.153 47.369 35.988 47.369 36.062 47.521 37.653 46.725 35.82 45.805 35.82 47.639 36.062 47.521" class="color1fb2d0 svgShape"></polygon>
  <polygon fill="#059f41" points="27.915 47.369 28.084 47.369 28.084 45.805 26.252 46.725 28.084 47.641 28.084 47.369 27.915 47.369 27.992 47.221 26.997 46.725 27.75 46.35 27.75 47.369 27.915 47.369 27.992 47.221" class="color1fb2d0 svgShape"></polygon>
  <path d="M41.104,9.857c0,0.261-0.227,0.473-0.505,0.473H23.304c-0.278,0-0.504-0.211-0.504-0.473s0.226-0.474,0.504-0.474H40.6
	C40.878,9.383,41.104,9.596,41.104,9.857z" fill="#000000" class="color000000 svgShape"></path>
  <path fill="#20d265" d="M36.777,56.545h12.971c-0.492-5.18-0.859-11.559-0.098-16.403c0.971-6.167-1.381-11.301-1.604-12.786
	c-0.535-3.566-3.414-9.292-4.879-9.355c0,0-0.445,17.792-0.744,17.76c-0.792-0.086-3.662-4.384-6.139-4.796
	c-3.737-0.625-3.318-4.812-5.29-4.545C28.152,30.072,30.34,34.016,37,41.389C37.803,45.449,38.395,51.462,36.777,56.545z" class="colord22027 svgShape"></path>
  <path fill="#ffffff" d="M42.244 36.054c.568.298.983.745 1.326 1.388.346.645.611 1.484.865 2.548l.324-.077c-.258-1.074-.525-1.94-.893-2.626-.366-.687-.834-1.196-1.467-1.527L42.244 36.054zM31.864 27.212l.008-.03.004-.012.001-.01.001-.01.001-.018-.008-.056-.018-.036-.031-.036-.04-.026-.068-.014-.077.019-.053.04-.021.031-.006.02-.006.017c-.009.03-.028.104-.043.22-.016.115-.032.271-.032.456 0 .448.087 1.067.458 1.691.37.62 1.023 1.238 2.122 1.682l.125-.31c-1.043-.421-1.626-.986-1.96-1.546-.331-.558-.411-1.113-.411-1.518 0-.182.016-.333.031-.437L31.864 27.212l.007-.027 0-.003-.104-.032.102.036.002-.004-.104-.032.102.036-.149-.051.145.064.004-.013-.149-.051.145.064-.152-.066.14.088.012-.022-.152-.066.14.088-.14-.088.117.118.023-.029-.14-.088.117.118-.117-.118.081.143.036-.025-.117-.118.081.143-.081-.143v.164l.081-.021-.081-.143v.164-.164l-.07.15.07.014v-.164l-.07.15.07-.15-.128.108.058.042.07-.15-.128.108.127-.108-.152.064.025.043.127-.108-.152.064.152-.064h-.167l.015.064.152-.064h-.167.165l-.163-.024-.002.024h.165l-.163-.024.128.016-.126-.03-.002.014.128.016-.126-.03-.005.023L31.864 27.212z" class="colorffffff svgShape"></path>
  <path fill="#ffffff" d="M42.195,36.039c0.332,0.112,1.027,0.443,1.789,1.025c0.763,0.584,1.596,1.419,2.221,2.539l0.291-0.161
	c-0.654-1.171-1.518-2.038-2.309-2.64c-0.794-0.608-1.506-0.953-1.887-1.08L42.195,36.039z" class="colorffffff svgShape"></path>
  <line x1="24.02" x2="27.168" y1="14.699" y2="14.824" fill="none" stroke="#000000" stroke-miterlimit="10" class="colorStroke000000 svgStroke"></line>
  <line x1="28.084" x2="33.627" y1="16.271" y2="16.271" fill="none" stroke="#000000" stroke-miterlimit="10" class="colorStroke000000 svgStroke"></line>
  <line x1="34.182" x2="41.104" y1="18" y2="18" fill="none" stroke="#000000" stroke-miterlimit="10" class="colorStroke000000 svgStroke"></line>
  <line x1="24.02" x2="31.531" y1="22.09" y2="22.09" fill="none" stroke="#000000" stroke-miterlimit="10" class="colorStroke000000 svgStroke"></line>
  <line x1="29.29" x2="38.323" y1="23.408" y2="23.408" fill="none" stroke="#000000" stroke-miterlimit="10" class="colorStroke000000 svgStroke"></line>
  <line x1="24.02" x2="27.775" y1="26.966" y2="26.966" fill="none" stroke="#000000" stroke-miterlimit="10" class="colorStroke000000 svgStroke"></line>
  <line x1="24.522" x2="28.084" y1="31.888" y2="32" fill="none" stroke="#000000" stroke-miterlimit="10" class="colorStroke000000 svgStroke"></line>
  <line x1="35.82" x2="40.562" y1="28.133" y2="28.13" fill="none" stroke="#000000" stroke-miterlimit="10" class="colorStroke000000 svgStroke"></line>
</svg>
