<svg xmlns="http://www.w3.org/2000/svg" viewBox="0 0 64 64" id="chatbotmachinelearning">
  <path d="M62.63642,34.32377a6.38189,6.38189,0,0,0-5.24459-6.08272,5.84126,5.84126,0,0,0-3.97986.73023c-.00753-2.64906.00419-5.29812-.00334-7.94717a18.16773,18.16773,0,0,0-1.97739-7.52226A20.60994,20.60994,0,0,0,46.001,6.87544,21.867,21.867,0,0,0,35.95177,2.35272a24.32084,24.32084,0,0,0-11.6694.88581,20.9572,20.9572,0,0,0-11.47368,9.3566,18.17717,18.17717,0,0,0-2.34542,8.08436c-.03681,1.81594-.01422,3.63273-.02092,5.44951.01339.931-.0276,1.86279.02761,2.79293a5.97379,5.97379,0,0,0-4.608-.52111,6.334,6.334,0,0,0-3.83014,3.19024,6.326,6.326,0,0,0,4.14632,8.981,5.9437,5.9437,0,0,0,4.26927-.61563c.00335,1.41361-.03848,2.82806.03681,4.24083a18.36693,18.36693,0,0,0,5.4721,11.3892,21.64839,21.64839,0,0,0,8.48752,5.232,24.33237,24.33237,0,0,0,9.682,1.07652,22.906,22.906,0,0,0,7.56492-2.02087,20.81536,20.81536,0,0,0,9.50214-8.65064,17.42564,17.42564,0,0,0,2.16057-6.869c.10288-1.46881.03681-2.94349.056-4.41481a6.13675,6.13675,0,0,0,4.79625.47427A6.32249,6.32249,0,0,0,62.63642,34.32377ZM9.86269,37.74237a3.90945,3.90945,0,0,1-2.93847.74277,3.97792,3.97792,0,0,1-2.56374-1.48806,4.07937,4.07937,0,0,1-.803-3.33913,4.013,4.013,0,0,1,1.555-2.4893,3.96946,3.96946,0,0,1,4.8573.04433c.31786.22585.07863.76034-.27519.76955-.235-.118-.435-.29276-.67084-.409a3.34454,3.34454,0,0,0-2.25926-.25261A3.19789,3.19789,0,0,0,4.5102,33.32253,3.25265,3.25265,0,0,0,4.501,35.51906a3.37284,3.37284,0,0,0,1.78,1.89625,3.21373,3.21373,0,0,0,2.99117-.25679c.29611-.18653.51526-.47344.82893-.63487.10707.09368.21413.189.31869.2869C10.19476,37.1008,10.19393,37.53827,9.86269,37.74237Zm39.33772,7.15588a14.15758,14.15758,0,0,1-3.32909,6.77446A17.40448,17.40448,0,0,1,39.40467,56.269a19.7323,19.7323,0,0,1-9.04461,1.3718,18.957,18.957,0,0,1-9.9187-3.68376,15.38664,15.38664,0,0,1-4.9811-6.33533,12.0447,12.0447,0,0,1-.926-4.76612q-.00251-10.4992,0-21.00009a14.3755,14.3755,0,0,1,2.34626-8.117A15.84988,15.84988,0,0,1,22.658,8.46471a18.13135,18.13135,0,0,1,6.91331-2.08863A19.75692,19.75692,0,0,1,40.03285,8.02055a17.87694,17.87694,0,0,1,4.68164,3.24629,15.29931,15.29931,0,0,1,4.46919,8.245,11.57247,11.57247,0,0,1,.15809,2.09616q-.0025,10.66357-.00083,21.3263A10.36969,10.36969,0,0,1,49.20041,44.89825Zm10.65228-9.91117c-2.4182.01673-4.83723.00836-7.25543.00418.00335-.358.00251-.716-.005-1.074,2.41067-.07779,4.82636.0092,7.2387-.04768C59.86189,34.241,59.85436,34.614,59.85269,34.98708Z" fill="#58ab05" class="color000000 svgShape"></path>
  <path d="M35.6724 7.41579a20.14623 20.14623 0 00-11.32981.98451 9.8806 9.8806 0 001.81177 5.69711 13.36872 13.36872 0 007.57746 5.16344c.02593-1.68044.01087-3.36.00836-5.04049.44918-.00334.89752.005 1.3467-.0092-.00418 1.78417-.02593 3.56833.01087 5.35165a16.09792 16.09792 0 002.70678.14638A11.18876 11.18876 0 0045.63878 16.053c.34713-.38142.62483-.81722.95272-1.21286a18.13954 18.13954 0 00-2.07608-2.6156A17.62732 17.62732 0 0035.6724 7.41579zM19.57144 22.11317a2.27719 2.27719 0 10-.71684-4.46668 2.28292 2.28292 0 00.71684 4.46668zM25.94441 33.76334a3.63391 3.63391 0 01-1.40609.94018 2.79882 2.79882 0 01-2.61476-.48264 3.09949 3.09949 0 01-.81638-3.87865 2.93828 2.93828 0 014.61138-.74026c.07278.046.17231.20409.26433.10121.46925-.40568.89-.86573 1.35-1.28229a4.93341 4.93341 0 00-2.11456-1.49642 4.63744 4.63744 0 00-2.59636-.14972 5.0722 5.0722 0 00-3.161 2.245 5.24527 5.24527 0 00-.79463 3.28728 5.14859 5.14859 0 002.11874 3.72474 4.78371 4.78371 0 003.96982.82056 4.88708 4.88708 0 002.624-1.78081A10.01137 10.01137 0 0025.94441 33.76334zM42.78312 27.41547a4.87263 4.87263 0 00-3.71053-.61647 4.69958 4.69958 0 00-2.54784 1.62105c.47511.41489.8858.89836 1.36593 1.30739.13467.03262.2133-.12965.31869-.189a2.98 2.98 0 013.56163-.2568 3.0254 3.0254 0 011.28731 3.02547 3.13906 3.13906 0 01-1.44874 2.11958 2.86019 2.86019 0 01-2.808.082 5.01637 5.01637 0 01-.86071-.67168c-.09034-.11961-.2133.02258-.28942.0803-.40066.37055-.78459.75867-1.17271 1.14176a4.77207 4.77207 0 002.08111 1.62524 4.67974 4.67974 0 002.51606.21915 5.21176 5.21176 0 003.4989-2.4985 5.00382 5.00382 0 00.67418-3.10158A5.15879 5.15879 0 0042.78312 27.41547z" fill="#58ab05" class="color000000 svgShape"></path>
  <path d="M23.343 29.99092a1.7884 1.7884 0 00-1.4136 1.25636 2.0821 2.0821 0 00-.00335 1.07735 1.82714 1.82714 0 001.65451 1.304A1.89715 1.89715 0 0025.52451 31.653 1.866 1.866 0 0023.343 29.99092zM39.991 33.622a1.82963 1.82963 0 10-.30866-3.59593 1.88279 1.88279 0 00-1.14009.86657 1.80459 1.80459 0 00-.01255 1.795A1.83841 1.83841 0 0039.991 33.622zM31.2534 44.78951c-.00335-1.32829 0-2.65658-.00586-3.98488-.583.00419-1.166.01088-1.749 0 .01506 1.3283.00836 2.65743.00168 3.98656C30.08487 44.79035 30.66871 44.78282 31.2534 44.78951zM34.33407 40.80965c-.58468-.01924-1.16937.01255-1.75322-.0092-.02258 1.32746.00168 2.65575-.00585 3.984q.88331.00753 1.76743 0C34.33657 43.45955 34.3508 42.1346 34.33407 40.80965zM27.13552 48.454c-.00836.62985-.0092 1.2597-.01 1.88956 3.24044-.02259 6.48087-.00586 9.72047-.00753-.00084-.62149.00334-1.243-.01088-1.86446C33.603 48.45905 30.36843 48.48665 27.13552 48.454z" fill="#58ab05" class="color000000 svgShape"></path>
</svg>
