<svg xmlns="http://www.w3.org/2000/svg" fill-rule="evenodd" stroke-linejoin="round" stroke-miterlimit="2" clip-rule="evenodd" viewBox="0 0 64 64" id="HandTouch">
  <path d="m17.071 38.494-7.778-7.778a1 1 0 0 1 0-1.414l.707-.708a4 4 0 0 1 5.657 0l5.657 5.657 16.97-16.97a.999.999 0 0 1 1.414 0l.674.673a4.048 4.048 0 0 1 0 5.725l-7.037 7.037 1.828 1.828c.187.188.293.442.293.707v3.829l1.828 1.828a1 1 0 0 1 .293.707v3.829l1.829 1.828c.187.188.292.442.292.707v3.414c0 .266-.105.52-.292.708l-9.607 9.606a1 1 0 0 1-1.414 0L15.657 46.979a.997.997 0 0 1 0-1.414l1.668-1.668a4.011 4.011 0 0 1-.254-1.403zm12.808 18.042 2.828-2.829a1 1 0 0 0-1.414-1.414l-2.829 2.828a1.002 1.002 0 0 0 0 1.415c.391.39 1.024.39 1.415 0zm4.414-7.243a.999.999 0 1 1 1.414 1.411.999.999 0 0 1-1.414-1.411z" fill="#58ab05" class="color000000 svgShape"></path>
  <path d="M31.22 19.25A7.008 7.008 0 0 1 38 14c3.862 0 7 3.137 7 7a7.006 7.006 0 0 1-4.376 6.49 1 1 0 1 0 .751 1.854A9.006 9.006 0 0 0 47 21c0-4.967-4.033-9-9-9-4.19 0-7.715 2.87-8.715 6.75a1 1 0 0 0 1.936.5z" fill="#58ab05" class="color000000 svgShape"></path>
  <path d="M26.999 20.999c0-6.071 4.929-11 11-11 6.07 0 11 4.929 11 11 0 5.446-3.967 9.973-9.166 10.848a1 1 0 1 0 .33 1.972C46.31 32.785 51 27.436 51 20.999c0-7.175-5.826-13-13-13-7.175 0-13 5.825-13 13a1 1 0 0 0 2 0z" fill="#58ab05" class="color000000 svgShape"></path>
  <path d="M23 21c0-8.279 6.721-15 15-15s15 6.721 15 15c0 7.644-5.729 13.96-13.124 14.884a.999.999 0 1 0 .248 1.984C48.505 36.821 55 29.663 55 21c0-9.383-7.617-17-17-17s-17 7.617-17 17a1 1 0 0 0 2 0z" fill="#58ab05" class="color000000 svgShape"></path>
</svg>
