<svg xmlns="http://www.w3.org/2000/svg" viewBox="0 0 51 51" id="RealTimeAnalytics">
  <path fill="#022e97" d="m30.65 40.772-14.915 8.612-5.29-3.071v-2.309l14.905-8.611 5.29 3.071z" class="color1d2943 svgShape"></path>
  <path fill="#111b33" d="m30.642 38.467-5.288-3.073-14.912 8.61.004 2.308 5.288 3.073 14.912-8.61z" class="color111d33 svgShape"></path>
  <path fill="#111b33" d="m10.442 44.004.004 2.308 5.288 3.073-.005-2.308z" class="color111d33 svgShape"></path>
  <path fill="#022e97" d="m15.729 47.077.005 2.308 14.912-8.61-.004-2.308z" class="color1d2943 svgShape"></path>
  <path fill="#4c5875" d="m10.442 44.004 5.287 3.073 14.913-8.61-5.288-3.073z" class="color4c5c75 svgShape"></path>
  <path fill="#dee7fb" d="m16.768 44.172-1.664-.967-.02-7.09 1.664.967c1.104 2.563 2.04 5.096.02 7.09z" class="colordedffb svgShape"></path>
  <path fill="#767676" d="m16.748 37.082-1.664-.967 8.146-4.703 1.664.967z" class="color767676 svgShape"></path>
  <path fill="#f1f4fc" d="m24.894 32.379.02 7.09-8.146 4.703-.02-7.09z" class="colorf3f1fc svgShape"></path>
  <path fill="#4c5875" d="M36.683 3.298 5.163 47.2l-2.63-1.53c-.391-.232-.66-.746-.66-1.455L1.81 22.239c0-1.456 1.016-3.218 2.288-3.94L32.425 1.928c.648-.367 1.223-.404 1.64-.147l2.618 1.517z" class="color4c5c75 svgShape"></path>
  <path fill="#022e97" d="M35.05 3.456c1.264-.73 2.291-.144 2.295 1.308l.063 21.962c.004 1.452-1.017 3.22-2.28 3.95L6.785 47.037c-1.263.73-2.291.145-2.295-1.307l-.062-21.963c-.005-1.452 1.016-3.22 2.28-3.949L35.05 3.456z" class="color1d2943 svgShape"></path>
  <path fill="#5788fe" d="M35.85 26.735c.01.883-.723 2.148-1.495 2.6L6.05 45.675l-.07-21.91c0-.884.733-2.149 1.506-2.59L34.395 5.637a.935.935 0 0 1 1.405.803l.05 20.295z" class="color57b3fe svgShape"></path>
  <path fill="#e7edfc" d="m35.007 24.208-.01 1.44c0 .76-.27 1.3-.7 1.55l-20.27 11.78c.06-.04.11-.09.17-.14-.45.38-1.12.41-1.88-.03-1.33-.77-2.41-2.64-2.41-4.17l.07-17.15c0-.7-.36-1.51-.87-2.09l-2.21 1.28-.82.49.01-1.93c0-.9.39-1.47.98-1.62-.1.02-.21.06-.3.11l20.27-11.78c.43-.24 1.02-.21 1.68.16 1.29.76 2.35 2.58 2.34 4.07l-.06 17.15c0 .62.27 1.31.67 1.88l2.52-1.47.82.47z" class="colore9e7fc svgShape"></path>
  <g fill="#f1f4fc" class="colorf3f1fc svgShape">
    <path d="m14.738 35.99-.004 1.434c-.002.76-.272 1.298-.707 1.55l20.267-11.777c.434-.253.704-.79.706-1.55l.004-1.435-20.266 11.777zm-7.39-21.26c-.276.16-.447.5-.448.981l-.003.97L27.163 4.904l.003-.97c.002-.482.172-.821.448-.981L7.348 14.73z" fill="#000000" class="color000000 svgShape"></path>
    <path d="M33.715 26.196 13.45 37.974c-.288.172-.69.15-1.128-.104-.885-.518-1.587-1.748-1.587-2.76l.058-17.15c.011-1.495-1.047-3.313-2.347-4.072-.655-.368-1.242-.402-1.68-.16L27.034 1.948c.437-.241 1.023-.207 1.679.161 1.3.76 2.358 2.577 2.346 4.072l-.057 17.15c0 1.012.701 2.242 1.587 2.76.437.253.84.276 1.127.104z" fill="#000000" class="color000000 svgShape"></path>
  </g>
  <path fill="#e7edfc" d="m13.923 35.519 20.266-11.778.815.471-20.266 11.777z" class="colore9e7fc svgShape"></path>
  <path fill="#dee7fb" d="M8.447 13.893c1.3.75 2.354 2.576 2.35 4.07l-.065 17.15c-.003 1.013.707 2.243 1.588 2.751.881.51 1.596.102 1.599-.91l.004-1.435.815.47-.004 1.435c-.004 1.527-1.088 2.153-2.417 1.386-1.329-.768-2.412-2.644-2.408-4.172l.065-17.15c.003-.97-.685-2.163-1.53-2.65-.852-.492-1.544-.097-1.547.873l-.003.97-.815.485.003-1.926c.004-1.493 1.065-2.098 2.365-1.347z" class="colordedffb svgShape"></path>
  <path fill="#4c5875" d="m22.453 12.45.001.326-1.376.794-.551.954-1.069 1.852-.203-.115 1.089-1.885.615-1.064z" class="color4c5c75 svgShape"></path>
  <path fill="#6183d5" d="M17.242 14.565c1.234-.712 2.342-.732 3.102-.189l-1.09 1.885.204.115 1.07-1.852c.54.49.862 1.31.865 2.398l-4.137 2.398-.014-4.755z" class="color72d561 svgShape"></path>
  <path fill="#4c5875" d="m13.53 17.602.619.351 1.097.622-.202.35-1.077-.614-.554-.316-1.376.794v-.325z" class="color4c5c75 svgShape"></path>
  <path fill="#5181f4" d="m17.242 14.565.014 4.755-4.138 2.389c-.003-1.098.314-2.286.85-3.398l1.076.614.202-.35-1.097-.622c.755-1.418 1.86-2.675 3.093-3.388z" class="colorf45170 svgShape"></path>
  <path fill="#4c5875" d="m15.053 22.263.203.116-1.086 1.881-.618 1.072-1.494.862-.001-.33 1.376-.794.554-.959z" class="color4c5c75 svgShape"></path>
  <path fill="#6c97ff" d="m17.256 19.32.013 4.759c-1.23.71-2.337.727-3.099.181l1.086-1.88-.203-.117-1.066 1.848c-.54-.492-.865-1.313-.87-2.402l4.139-2.39z" class="colorffd06c svgShape"></path>
  <path fill="#4c5875" d="m19.467 19.715 1.075.612.556.318 1.376-.795.001.33-1.494.862-.622-.354-1.094-.624z" class="color4c5c75 svgShape"></path>
  <path fill="#5788fe" d="M21.393 16.93c.002 1.093-.316 2.283-.851 3.397l-1.075-.612-.202.35 1.094.623c-.755 1.42-1.858 2.68-3.09 3.39l-.013-4.758 4.137-2.39z" class="color57b3fe svgShape"></path>
  <path fill="#5181f4" d="M13.24 29.047c.451-.261.82-.056.821.463.002.52-.365 1.154-.817 1.415-.452.261-.82.051-.822-.468-.001-.52.365-1.15.817-1.41z" class="colorf45170 svgShape"></path>
  <path fill="#dee7fb" d="m25.483 23.281.002.471-10.42 6.015-.001-.471zM29.506 19.757l.002.476-14.446 8.34-.002-.476zM23.691 11.69l5.817-3.358-.002-.476-5.815 3.357zM23.691 13.607l5.817-3.358-.002-.476-5.815 3.357zM23.691 15.524l5.817-3.358-.002-.476-5.815 3.357zM23.691 17.441l5.817-3.358-.002-.476-5.815 3.357zM23.691 19.358l5.817-3.359-.002-.475-5.815 3.357zM23.691 21.274l5.817-3.358-.002-.475-5.815 3.357z" class="colordedffb svgShape"></path>
  <path fill="#678fee" d="M13.24 32.417c.451-.26.82-.055.821.464.002.52-.365 1.154-.817 1.415-.452.261-.82.051-.822-.468-.001-.52.365-1.15.817-1.41z" class="color678aee svgShape"></path>
  <path fill="#dee7fb" d="m25.483 26.651.002.471-10.42 6.016-.001-.471zM29.506 23.128l.002.475-14.446 8.341-.002-.476z" class="colordedffb svgShape"></path>
  <path fill="#6c97ff" d="m45.791 39.654-.006 1.467c-.002.866-.572 1.732-1.71 2.393-2.291 1.332-6.014 1.332-8.32 0-1.157-.668-1.735-1.545-1.733-2.422l.006-1.466c-.003.876.623 1.68 1.78 2.348 2.306 1.331 5.976 1.293 8.268-.039 1.137-.661 1.713-1.414 1.715-2.28z" class="colorffd06c svgShape"></path>
  <path fill="#3d75f9" d="M44.08 42.048c-.45.264-.955.472-1.496.63-.425.127-.867.219-1.32.277a8.311 8.311 0 0 1-.747.073 9.717 9.717 0 0 1-3.284-.358 6.918 6.918 0 0 1-1.474-.622c-2.3-1.327-2.311-3.485-.018-4.816.45-.26.954-.472 1.492-.63 1.02-.303 2.165-.42 3.284-.35.249.014.498.04.746.076.454.059.896.154 1.32.278.53.161 1.028.366 1.47.622 2.309 1.331 2.32 3.49.026 4.82z" class="colorf9a83d svgShape"></path>
  <path fill="#6c97ff" d="M39.926 42.416c-1.421 0-2.752-.317-3.748-.892-.912-.526-1.415-1.198-1.416-1.89 0-.688.495-1.356 1.397-1.88.989-.575 2.316-.891 3.738-.891 1.42 0 2.748.315 3.74.888.915.528 1.42 1.201 1.42 1.895.001.688-.495 1.355-1.396 1.879-.988.574-2.315.89-3.735.89z" class="colorffd06c svgShape"></path>
  <path fill="#6c97ff" d="m47.81 37.557-.007 1.467c-.002.866-.572 1.732-1.71 2.393-2.291 1.332-6.014 1.332-8.32 0-1.158-.668-1.736-1.545-1.733-2.422l.006-1.466c-.003.876.623 1.68 1.78 2.348 2.306 1.331 5.976 1.293 8.267-.039 1.138-.661 1.714-1.414 1.716-2.28z" class="colorffd06c svgShape"></path>
  <path fill="#3d75f9" d="M46.097 39.951c-.45.264-.954.472-1.495.63-.425.127-.867.219-1.32.277a8.311 8.311 0 0 1-.747.073 9.717 9.717 0 0 1-3.284-.358 6.918 6.918 0 0 1-1.474-.622c-2.3-1.327-2.311-3.485-.018-4.816.45-.26.954-.472 1.492-.63 1.02-.303 2.165-.42 3.284-.35.249.014.498.04.746.076.454.059.896.154 1.32.278.53.161 1.028.366 1.47.622 2.309 1.331 2.32 3.49.026 4.82z" class="colorf9a83d svgShape"></path>
  <path fill="#6c97ff" d="M41.943 40.319c-1.42 0-2.752-.317-3.747-.892-.912-.526-1.415-1.198-1.416-1.89-.001-.688.495-1.356 1.397-1.88.989-.575 2.316-.891 3.738-.891 1.42 0 2.748.315 3.74.888.914.528 1.419 1.201 1.42 1.895 0 .688-.495 1.355-1.396 1.879-.988.574-2.315.89-3.736.89z" class="colorffd06c svgShape"></path>
  <path fill="#6c97ff" d="m45.791 35.46-.006 1.467c-.002.866-.572 1.732-1.71 2.393-2.291 1.332-6.014 1.332-8.32 0-1.157-.668-1.735-1.545-1.733-2.422l.006-1.466c-.003.876.623 1.68 1.78 2.348 2.306 1.331 5.976 1.293 8.268-.039 1.137-.661 1.713-1.414 1.715-2.28z" class="colorffd06c svgShape"></path>
  <path fill="#3d75f9" d="M44.08 37.854c-.45.264-.955.472-1.496.63-.425.127-.867.219-1.32.277a8.311 8.311 0 0 1-.747.074 9.717 9.717 0 0 1-3.284-.359 6.918 6.918 0 0 1-1.474-.622c-2.3-1.327-2.311-3.485-.018-4.816.45-.26.954-.472 1.492-.63 1.02-.303 2.165-.42 3.284-.35.249.014.498.04.746.076.454.059.896.154 1.32.278.53.161 1.028.366 1.47.622 2.309 1.331 2.32 3.49.026 4.82z" class="colorf9a83d svgShape"></path>
  <path fill="#6c97ff" d="M39.926 38.222c-1.421 0-2.752-.317-3.748-.892-.912-.526-1.415-1.198-1.416-1.89 0-.688.495-1.356 1.397-1.88.989-.575 2.316-.891 3.738-.891 1.42 0 2.748.315 3.74.888.915.528 1.42 1.201 1.42 1.895.001.688-.495 1.355-1.396 1.879-.988.574-2.315.89-3.735.89z" class="colorffd06c svgShape"></path>
  <path fill="#3d75f9" d="M42.387 34.913c-.733-.423-1.245-.258-1.54-.125l-.01-.008c.28-.234.166-.545-.253-.786-.526-.306-1.127-.287-1.668-.03l-.306-.178-.364.213.292.17-.26.151-.292-.17-.377.218.292.17-.906.529.622.356.414-.242 2.324 1.342-.417.241.62.359.908-.526.281.162.377-.218-.281-.165.258-.151.284.165.366-.213-.305-.175c.67-.5.321-.869-.059-1.09zm-2.489.111-.23.133-.8-.46.23-.135a.79.79 0 0 1 .784-.018c.253.146.295.318.016.48zm1.544.869-.25.146-.97-.56.271-.157c.253-.146.577-.162.936.042.239.138.347.335.013.529z" class="colorf9a83d svgShape"></path>
  <path fill="#ffffff" d="M40.519 32.058v6.777a9.718 9.718 0 0 1-3.285-.358v-6.068c1.02-.304 2.165-.421 3.285-.351zm2.066.354v6.072c-.424.128-.867.22-1.32.278v-6.628c.453.059.896.154 1.32.278z" opacity=".25" class="colorffffff svgShape"></path>
  <path fill="#5181f4" d="m47.144 5.277.012.006-1.858-1.08c-1.267-.736-3.022-.633-4.958.485-1.4.808-2.7 2.035-3.79 3.481-1.698 2.254-2.88 5.042-3.112 7.613-.029.315-.043.627-.043.935.007 2.196.782 3.741 2.033 4.468l1.858 1.08c-.047-.027-.089-.065-.135-.095 1.276.829 3.084.77 5.093-.39 3.848-2.222 6.957-7.607 6.945-12.028-.007-2.203-.787-3.75-2.045-4.475z" class="colorf45170 svgShape"></path>
  <path fill="#3265df" d="M42.199 5.768c3.847-2.221 6.977-.438 6.99 3.984.012 4.421-3.097 9.806-6.945 12.028-3.848 2.221-6.977.438-6.99-3.983-.012-4.422 3.097-9.807 6.945-12.029z" class="colordf3260 svgShape"></path>
  <path fill="#5181f4" d="M46.655 6.057c.827.646 1.292 1.853 1.297 3.486.006 1.979-.67 4.244-1.902 6.377-1.232 2.135-2.86 3.858-4.583 4.853-.944.545-1.867.833-2.668.833a2.7 2.7 0 0 1-1.33-.326c.448.35 1.003.537 1.649.537.801 0 1.724-.288 2.667-.832 1.724-.995 3.352-2.719 4.584-4.853 1.232-2.134 1.907-4.399 1.902-6.377-.006-1.833-.59-3.128-1.616-3.698z" class="colorf45170 svgShape"></path>
  <path fill="#ffffff" d="M41.467 20.773c1.723-.995 3.351-2.718 4.583-4.853 1.232-2.133 1.908-4.398 1.902-6.377-.005-1.633-.47-2.84-1.297-3.486a2.701 2.701 0 0 0-1.33-.326c-.802 0-1.724.288-2.667.832-1.724.995-3.352 2.72-4.584 4.854-1.232 2.133-1.908 4.399-1.902 6.377.005 1.634.47 2.84 1.297 3.486a2.7 2.7 0 0 0 1.33.326c.801 0 1.724-.288 2.668-.833z" class="colorffffff svgShape"></path>
  <path fill="#5181f4" d="M45.298 4.203c-1.267-.736-3.022-.633-4.958.485-1.4.808-2.7 2.035-3.79 3.481-1.698 2.254-2.88 5.042-3.112 7.613-.029.315-.043.627-.042.935.006 2.196.781 3.741 2.032 4.468l1.858 1.08c-1.25-.726-1.926-2.287-1.932-4.484 0-.307.014-.62.042-.935.233-2.57 1.47-5.258 3.168-7.512 1.09-1.446 2.258-2.623 3.657-3.431 1.936-1.118 3.668-1.356 4.935-.62l-1.858-1.08z" class="colorf45170 svgShape"></path>
  <path fill="#4c5875" d="M42 19.387c-.086 0-.143-.068-.144-.17a.44.44 0 0 1 .199-.344.199.199 0 0 1 .1-.03c.084 0 .14.07.14.171.001.17-.149.373-.296.373zm2.364-2.1a.132.132 0 0 1-.108-.053c-.107-.154.076-.488.268-.488.045 0 .084.02.11.054.105.152-.072.487-.27.487zM46.1 14.29h-.016a.126.126 0 0 1-.1-.059c-.104-.158.083-.48.27-.48h.012c.044.005.08.028.102.066.096.16-.088.473-.268.473zm.625-3.089c-.085 0-.142-.068-.142-.17 0-.16.146-.37.297-.37.085 0 .142.067.143.166 0 .163-.149.374-.298.374zm-7.111 8.824a.127.127 0 0 1-.1-.06c-.104-.163.086-.481.267-.481h.016c.253.019.09.54-.175.54a.18.18 0 0 1-.008 0zM44.227 7.79c-.104-.161.087-.478.27-.478h.011c.044.004.08.027.103.063.08.127-.021.362-.17.448-.076.044-.167.041-.214-.033zm-6.982 8.884c-.086 0-.143-.068-.144-.169 0-.125.09-.278.2-.341.122-.071.24-.006.24.137 0 .163-.145.373-.296.373zm.512-3.149c-.082-.127.02-.364.17-.45.076-.045.166-.042.213.032.083.13-.024.364-.17.448-.076.044-.165.044-.213-.03zm1.732-2.991c-.076-.111-.001-.358.166-.454.092-.054.172-.032.211.028.088.117-.014.364-.165.451-.091.053-.172.032-.212-.025zm6.482-1.743c-.06-.09-.03-.252.067-.37.088-.11.235-.167.309-.06.061.08.032.246-.065.366-.089.109-.234.166-.31.064zm-8.196 10.187c-.06-.086-.03-.248.067-.37.091-.11.236-.166.309-.061.06.085.033.246-.065.367-.09.114-.234.165-.31.064zM41.97 8.492c-.086 0-.143-.068-.144-.17 0-.17.155-.37.3-.37.07 0 .14.051.14.167 0 .17-.15.373-.296.373zM42.292 13.514c.107-.028.185.04.186.18a.552.552 0 0 1-.249.441c-.135.078-.241.03-.257-.111a.34.34 0 0 1 0-.075.572.572 0 0 1 .176-.348.359.359 0 0 1 .144-.087z" class="color4c5c75 svgShape"></path>
  <path fill="#6084db" d="m39.998 14.74 1.974-.791a.415.415 0 0 0 0 .075L40 15.51l-1.516.49 1.514-1.261zm2.22-4.363.374 1.072-.3 2.065a.359.359 0 0 0-.144.087l-.305-1.72.375-1.504z" class="colordba660 svgShape"></path>
</svg>
