<svg xmlns="http://www.w3.org/2000/svg" enable-background="new 0 0 64 64" viewBox="0 0 64 64" id="Viewfocus">
  <g fill="#58ab05" class="color000000 svgShape">
    <path d="M1.47 9.49c.75 0 1.35-.61 1.35-1.35V2.71h4.85c.75 0 1.35-.61 1.35-1.35S8.42 0 7.67 0H2.13C1.02 0 .12.9.12 2.01v6.12C.12 8.88.72 9.49 1.47 9.49zM7.67 61.29H2.82v-5.39c0-.75-.61-1.35-1.35-1.35s-1.35.61-1.35 1.35v5.89c0 1.22.99 2.21 2.21 2.21h5.35c.75 0 1.35-.61 1.35-1.35S8.42 61.29 7.67 61.29zM61.87 0h-5.54c-.75 0-1.35.61-1.35 1.35s.61 1.35 1.35 1.35h4.85v5.43c0 .75.61 1.35 1.35 1.35s1.35-.61 1.35-1.35V2.01C63.88.9 62.98 0 61.87 0zM62.53 54.55c-.75 0-1.35.61-1.35 1.35v5.39h-4.85c-.75 0-1.35.61-1.35 1.35S55.59 64 56.33 64h5.35c1.22 0 2.21-.99 2.21-2.21v-5.89C63.88 55.16 63.28 54.55 62.53 54.55zM57.76 36.1h-.68c.3-.34.6-.68.9-1.04.73-.88 1.14-2 1.14-3.16 0-1.17-.42-2.3-1.16-3.18C49.43 18.6 40.69 13.47 32 13.47c-8.69 0-17.42 5.13-25.96 15.25-.75.89-1.16 2.01-1.16 3.18 0 1.16.4 2.29 1.14 3.16.3.36.59.7.89 1.04H6.23c-.75 0-1.35.61-1.35 1.36 0 .74.6 1.35 1.35 1.35h3.13C16.83 46.59 24.44 50.53 32 50.53c7.57 0 15.16-3.94 22.63-11.71h3.13c.75 0 1.36-.61 1.36-1.35C59.13 36.72 58.51 36.1 57.76 36.1zM32 47.83c-6.18 0-12.48-3.03-18.78-9.01h6.05c1.03 1.95 2.51 3.67 4.39 5.05.23.18.52.26.8.26.44 0 .85-.2 1.1-.55.21-.29.3-.65.24-1.01-.06-.35-.24-.67-.54-.89-1.11-.82-2.03-1.79-2.79-2.86h1.68c1.9 2.23 4.72 3.65 7.87 3.65 3.14 0 5.96-1.42 7.86-3.65h1.62c-.75 1.07-1.67 2.04-2.79 2.86-.29.21-.49.53-.53.89-.06.35.03.71.24 1 .25.35.66.55 1.09.55.29 0 .57-.1.8-.26 1.89-1.38 3.37-3.1 4.39-5.05h6.11C44.48 44.79 38.18 47.83 32 47.83zM55.91 33.33c-.82.98-1.63 1.9-2.45 2.77h-7.68c.46-1.59.65-3.26.54-5-.26-4.62-2.62-8.73-6.15-10.73-.2-.12-.44-.18-.67-.18-.49 0-.93.26-1.18.69-.18.31-.22.68-.13 1.02.1.35.32.64.64.83 2.73 1.55 4.56 4.82 4.78 8.53.1 1.7-.16 3.34-.71 4.84h-1.37c.51-1.22.79-2.55.79-3.95 0-.89-.11-1.77-.33-2.59-.01-.05-.04-.09-.06-.14-.02-.04-.01-.08-.03-.11-.02-.03-.04-.06-.06-.09-.03-.05-.06-.1-.09-.14-.06-.07-.12-.14-.18-.19-.04-.03-.07-.06-.11-.09-.08-.06-.17-.1-.25-.14-.04-.02-.08-.04-.12-.06-.12-.03-.24-.05-.37-.06-.01 0-.03-.01-.04-.01-.02 0-.03.01-.04.01-.1 0-.19.01-.29.04 0 0-.01 0-.02 0-.06.02-.12.04-.18.07-.02.01-.05.01-.07.02-.25.13-.52.18-.81.18-1.06 0-1.93-.87-1.93-1.94 0-.5.19-.96.55-1.34.01-.01.02-.03.03-.05.04-.04.09-.08.12-.14.03-.04.04-.09.06-.14.04-.08.08-.16.1-.24.03-.09.04-.18.05-.26 0-.05.02-.1.02-.14s-.02-.08-.02-.11c-.01-.1-.04-.18-.07-.27-.02-.08-.05-.16-.09-.22-.05-.08-.1-.16-.16-.22-.04-.04-.05-.09-.09-.13-.03-.03-.07-.04-.11-.06-.03-.03-.05-.06-.08-.08-1.68-1.12-3.64-1.71-5.67-1.71-5.69 0-10.32 4.63-10.32 10.32 0 1.4.28 2.73.8 3.95h-1.44c-.54-1.51-.81-3.14-.71-4.84.22-3.71 2.05-6.98 4.79-8.53.65-.37.88-1.2.52-1.85-.24-.43-.7-.69-1.19-.69-.23 0-.47.07-.67.18-3.52 1.99-5.87 6.11-6.15 10.73-.1 1.74.1 3.41.55 5h-7.65c-.81-.88-1.62-1.8-2.44-2.77-.33-.4-.52-.9-.52-1.43 0-.53.18-1.03.53-1.43 8-9.48 16.04-14.3 23.89-14.3 7.86 0 15.89 4.81 23.9 14.3.33.4.52.9.52 1.43C56.41 32.43 56.24 32.93 55.91 33.33z" fill="#58ab05" class="color000000 svgShape"></path>
  </g>
</svg>
